<svg xmlns="http://www.w3.org/2000/svg" width="1024" height="1126" viewBox="0 0 1000 1100"><defs><clipPath id="a"><path d="M236 445h16v-16h-8a8 8 0 0 0-8 8M252 461v-16h-16v8a8 8 0 0 0 8 8M236 493h16v-8a8 8 0 0 0-16 0M252 509v-16h-16v8a8 8 0 0 0 8 8M236 557h16v-16h-8a8 8 0 0 0-8 8M252 557h-16v8a8 8 0 0 0 16 0M252 621v-16h-8a8 8 0 0 0 0 16M236 669h16v-16h-8a8 8 0 0 0-8 8M252 669h-16v8a8 8 0 0 0 16 0M252 429v16h16v-8a8 8 0 0 0-8-8M252 445h16v16h-16zM268 477v-16h-16v8a8 8 0 0 0 8 8M252 493h16v16h-16zM268 509h-16v8a8 8 0 0 0 16 0M252 541h16v16h-16zM252 605h16v-16h-8a8 8 0 0 0-8 8M252 605h16v16h-16zM252 621h16v16h-16zM252 637h16v16h-16zM252 653h16v16h-16zM268 461v16h8a8 8 0 0 0 0-16M268 493v16h8a8 8 0 0 0 0-16M268 541h16v16h-16zM268 589v16h16v-8a8 8 0 0 0-8-8M284 605h-16v16h8a8 8 0 0 0 8-8M268 653h16v16h-16zM300 445v-16h-8a8 8 0 0 0 0 16M300 493v-16h-8a8 8 0 0 0 0 16M284 525h16v-8a8 8 0 0 0-16 0M284 525h16v16h-16zM284 541h16v16h-16zM284 653h16v16h-16zM300 429h16v-8a8 8 0 0 0-16 0M300 429h16v16h-16zM300 445h16v16h-16zM300 461h16v16h-16zM300 477h16v16h-16zM316 509v-16h-16v8a8 8 0 0 0 8 8M300 525h16v16h-16zM300 541h16v16h-16zM300 557h16v16h-16zM300 573h16v16h-16zM300 589h16v16h-16zM300 605h16v16h-16zM316 637v-16h-16v8a8 8 0 0 0 8 8M300 653v16h8a8 8 0 0 0 0-16M316 493v16h8a8 8 0 0 0 0-16M316 525v16h8a8 8 0 0 0 0-16M316 557v16h8a8 8 0 0 0 0-16M316 621v16h16v-8a8 8 0 0 0-8-8M332 653v-16h-16v8a8 8 0 0 0 8 8M332 685v-16h-8a8 8 0 0 0 0 16M348 429v-16h-8a8 8 0 0 0 0 16M348 461v-16h-8a8 8 0 0 0 0 16M348 493v-16h-8a8 8 0 0 0 0 16M348 525v-16h-8a8 8 0 0 0 0 16"/><circle cx="340" cy="549" r="8"/><path d="M348 589v-16h-8a8 8 0 0 0 0 16M348 621v-16h-8a8 8 0 0 0 0 16M332 637h16v16h-16zM332 669v16h8a8 8 0 0 0 0-16M348 413h16v16h-16zM348 445h16v16h-16zM348 477v16h16v-8a8 8 0 0 0-8-8M348 493h16v16h-16zM348 509h16v16h-16zM348 573v16h16v-8a8 8 0 0 0-8-8M348 589h16v16h-16zM348 605h16v16h-16zM348 637v16h16v-8a8 8 0 0 0-8-8"/><path d="M364 653h-16v8a8 8 0 0 0 16 0M364 333h16v-16h-8a8 8 0 0 0-8 8M380 349v-16h-16v8a8 8 0 0 0 8 8M364 397h16v-8a8 8 0 0 0-16 0M364 397h16v16h-16zM380 413h-16v16h8a8 8 0 0 0 8-8M364 445v16h16v-8a8 8 0 0 0-8-8M380 477v-16h-16v8a8 8 0 0 0 8 8M364 509h16v16h-16zM380 525h-16v8a8 8 0 0 0 16 0M364 589h16v16h-16zM364 605h16v16h-16zM364 701h16v-16h-8a8 8 0 0 0-8 8M380 717v-16h-16v8a8 8 0 0 0 8 8"/><circle cx="372" cy="741" r="8"/><circle cx="388" cy="293" r="8"/><path d="M380 317h16v16h-16zM380 333h16v16h-16zM380 349h16v16h-16zM396 381v-16h-16v8a8 8 0 0 0 8 8M380 461v16h8a8 8 0 0 0 0-16M380 509h16v-8a8 8 0 0 0-16 0M396 509h-16v16h8a8 8 0 0 0 8-8M380 573h16v-8a8 8 0 0 0-16 0M380 573h16v16h-16zM380 589h16v16h-16zM396 605h-16v16h8a8 8 0 0 0 8-8M396 669v-16h-8a8 8 0 0 0 0 16M380 685v16h16v-8a8 8 0 0 0-8-8M396 701h-16v16h8a8 8 0 0 0 8-8M380 765h16v-16h-8a8 8 0 0 0-8 8M380 765h16v16h-16zM380 781h16v16h-16zM396 813v-16h-16v8a8 8 0 0 0 8 8M396 317h16v-16h-8a8 8 0 0 0-8 8M412 317h-16v16h8a8 8 0 0 0 8-8M396 349h16v16h-16zM396 365h16v16h-16zM396 381h16v16h-16zM412 397h-16v8a8 8 0 0 0 16 0M412 445v-16h-8a8 8 0 0 0 0 16M396 541h16v-8a8 8 0 0 0-16 0M412 557v-16h-16v8a8 8 0 0 0 8 8M396 637h16v-16h-8a8 8 0 0 0-8 8M396 637h16v16h-16zM412 653h-16v16h8a8 8 0 0 0 8-8M396 749h16v16h-16zM396 781v16h16v-8a8 8 0 0 0-8-8M412 797h-16v16h8a8 8 0 0 0 8-8M412 301h16v-16h-8a8 8 0 0 0-8 8M412 301h16v16h-16zM412 349v16h16v-8a8 8 0 0 0-8-8M428 365h-16v16h8a8 8 0 0 0 8-8M412 429h16v16h-16zM428 461v-16h-16v8a8 8 0 0 0 8 8"/><circle cx="420" cy="485" r="8"/><circle cx="420" cy="517" r="8"/><path d="M412 541v16h8a8 8 0 0 0 0-16M412 589h16v-16h-8a8 8 0 0 0-8 8M428 589h-16v8a8 8 0 0 0 16 0M412 621h16v16h-16zM412 637h16v16h-16zM428 685v-16h-8a8 8 0 0 0 0 16M412 733h16v-16h-8a8 8 0 0 0-8 8M412 733h16v16h-16zM412 749h16v16h-16zM428 285h16v16h-16zM444 301h-16v16h8a8 8 0 0 0 8-8M444 349v-16h-8a8 8 0 0 0 0 16M428 397h16v-8a8 8 0 0 0-16 0M428 397h16v16h-16zM428 413h16v16h-16zM428 429h16v16h-16zM428 445h16v16h-16zM444 461h-16v8a8 8 0 0 0 16 0"/><circle cx="436" cy="501" r="8"/><path d="M428 573h16v-8a8 8 0 0 0-16 0M428 573h16v16h-16zM428 621h16v16h-16zM428 637h16v16h-16zM428 653h16v16h-16zM428 669h16v16h-16zM428 717h16v16h-16zM428 749v16h8a8 8 0 0 0 0-16M444 285v16h8a8 8 0 0 0 0-16M444 333v16h16v-8a8 8 0 0 0-8-8M460 349h-16v8a8 8 0 0 0 16 0M444 397h16v16h-16zM460 413h-16v16h8a8 8 0 0 0 8-8M444 573h16v16h-16zM460 605v-16h-16v8a8 8 0 0 0 8 8M444 621h16v16h-16zM444 669h16v16h-16zM444 717v16h16v-8a8 8 0 0 0-8-8"/><path d="M460 733h-16v8a8 8 0 0 0 16 0M460 781v-16h-8a8 8 0 0 0 0 16M460 381h16v-16h-8a8 8 0 0 0-8 8M460 381h16v16h-16zM460 397h16v16h-16zM460 461h16v-16h-8a8 8 0 0 0-8 8M476 477v-16h-16v8a8 8 0 0 0 8 8M476 525v-16h-8a8 8 0 0 0 0 16M476 557v-16h-8a8 8 0 0 0 0 16M460 573h16v16h-16zM460 589h16v16h-16zM460 605h16v16h-16zM460 621h16v16h-16zM460 669h16v16h-16zM460 685h16v16h-16zM476 717v-16h-16v8a8 8 0 0 0 8 8M460 765v16h8a8 8 0 0 0 0-16M476 317h16v-8a8 8 0 0 0-16 0M476 317h16v16h-16zM476 333h16v16h-16zM476 349h16v16h-16zM492 365h-16v16h8a8 8 0 0 0 8-8M476 397h16v16h-16zM476 445h16v-8a8 8 0 0 0-16 0M476 445h16v16h-16zM476 461h16v16h-16zM476 509h16v-16h-8a8 8 0 0 0-8 8M476 509h16v16h-16zM476 525h16v16h-16zM476 541h16v16h-16zM476 573v16h8a8 8 0 0 0 0-16M476 621h16v16h-16zM492 637h-16v8a8 8 0 0 0 16 0M476 669h16v16h-16zM476 701h16v16h-16zM476 749h16v-8a8 8 0 0 0-16 0M492 765v-16h-16v8a8 8 0 0 0 8 8"/><circle cx="484" cy="805" r="8"/><circle cx="500" cy="293" r="8"/><path d="M492 349h16v16h-16zM492 397h16v-8a8 8 0 0 0-16 0M492 397h16v16h-16zM508 429v-16h-16v8a8 8 0 0 0 8 8M492 461v16h8a8 8 0 0 0 0-16M492 493v16h8a8 8 0 0 0 0-16M492 525h16v16h-16zM508 541h-16v16h8a8 8 0 0 0 8-8M492 605h16v-8a8 8 0 0 0-16 0M492 605h16v16h-16zM492 621h16v16h-16zM492 669v16h16v-8a8 8 0 0 0-8-8M492 685h16v16h-16zM492 701h16v16h-16zM492 749v16h8a8 8 0 0 0 0-16M524 317v-16h-8a8 8 0 0 0 0 16M508 349h16v16h-16zM508 397h16v16h-16zM508 413h16v16h-16zM524 445v-16h-16v8a8 8 0 0 0 8 8M508 525v16h8a8 8 0 0 0 0-16M524 589v-16h-8a8 8 0 0 0 0 16M508 605v16h16v-8a8 8 0 0 0-8-8M508 621h16v16h-16zM508 637h16v16h-16zM524 653h-16v8a8 8 0 0 0 16 0M508 701v16h16v-8a8 8 0 0 0-8-8M508 717h16v16h-16zM524 749v-16h-16v8a8 8 0 0 0 8 8M508 781h16v-16h-8a8 8 0 0 0-8 8M524 781h-16v8a8 8 0 0 0 16 0M524 301v16h8a8 8 0 0 0 0-16M524 349h16v16h-16zM524 365h16v16h-16zM524 381h16v16h-16zM524 397h16v16h-16zM524 413h16v16h-16zM524 429h16v16h-16zM524 445h16v16h-16zM540 477v-16h-16v8a8 8 0 0 0 8 8M540 525v-16h-8a8 8 0 0 0 0 16M524 573h16v-8a8 8 0 0 0-16 0M524 573h16v16h-16zM540 589h-16v8a8 8 0 0 0 16 0M524 637h16v16h-16zM524 717v16h16v-8a8 8 0 0 0-8-8M540 733h-16v16h8a8 8 0 0 0 8-8M524 765v16h8a8 8 0 0 0 0-16M540 333h16v-16h-8a8 8 0 0 0-8 8M540 333h16v16h-16zM540 349h16v16h-16zM556 365h-16v16h8a8 8 0 0 0 8-8M540 397v16h8a8 8 0 0 0 0-16M540 445h16v16h-16zM540 461h16v16h-16zM540 509h16v-16h-8a8 8 0 0 0-8 8M556 509h-16v16h8a8 8 0 0 0 8-8M556 557v-16h-8a8 8 0 0 0 0 16M540 573h16v16h-16zM540 637v16h8a8 8 0 0 0 0-16M540 701h16v-16h-8a8 8 0 0 0-8 8M556 701h-16v8a8 8 0 0 0 16 0M556 797v-16h-8a8 8 0 0 0 0 16M572 301v-16h-8a8 8 0 0 0 0 16M556 317v16h8a8 8 0 0 0 0-16M556 349v16h8a8 8 0 0 0 0-16"/><circle cx="564" cy="389" r="8"/><path d="M556 445h16v-16h-8a8 8 0 0 0-8 8M556 445h16v16h-16zM556 461h16v16h-16zM556 477h16v16h-16zM556 493h16v16h-16zM556 541h16v-8a8 8 0 0 0-16 0M556 541h16v16h-16zM556 573v16h16v-8a8 8 0 0 0-8-8M572 605v-16h-16v8a8 8 0 0 0 8 8"/><circle cx="564" cy="629" r="8"/><path d="M556 685h16v16h-16z"/><circle cx="564" cy="725" r="8"/><path d="M556 765h16v-8a8 8 0 0 0-16 0M556 765h16v16h-16zM572 781h-16v16h8a8 8 0 0 0 8-8M572 285v16h8a8 8 0 0 0 0-16M572 429h16v-16h-8a8 8 0 0 0-8 8M572 429h16v16h-16zM572 493v16h8a8 8 0 0 0 0-16M572 541h16v16h-16zM588 573v-16h-16v8a8 8 0 0 0 8 8M572 589v16h16v-8a8 8 0 0 0-8-8M588 621v-16h-16v8a8 8 0 0 0 8 8"/><circle cx="580" cy="645" r="8"/><path d="M572 685v16h8a8 8 0 0 0 0-16M572 765h16v16h-16z"/><circle cx="596" cy="325" r="8"/><path d="M588 365h16v-8a8 8 0 0 0-16 0M588 365h16v16h-16zM604 381h-16v8a8 8 0 0 0 16 0M588 413h16v16h-16zM588 429h16v16h-16zM604 461v-16h-16v8a8 8 0 0 0 8 8M588 541v16h16v-8a8 8 0 0 0-8-8M604 557h-16v16h8a8 8 0 0 0 8-8M588 605v16h16v-8a8 8 0 0 0-8-8M604 621h-16v8a8 8 0 0 0 16 0"/><circle cx="596" cy="709" r="8"/><path d="M588 749h16v-16h-8a8 8 0 0 0-8 8M588 749h16v16h-16zM588 765h16v16h-16zM588 781h16v16h-16zM604 813v-16h-16v8a8 8 0 0 0 8 8"/><circle cx="612" cy="309" r="8"/><circle cx="612" cy="341" r="8"/><path d="M604 413h16v16h-16zM604 445v16h8a8 8 0 0 0 0-16"/><circle cx="612" cy="485" r="8"/><path d="M620 541v-16h-8a8 8 0 0 0 0 16M620 605v-16h-8a8 8 0 0 0 0 16M604 669h16v-16h-8a8 8 0 0 0-8 8M604 669h16v16h-16zM620 701v-16h-16v8a8 8 0 0 0 8 8M604 733h16v-16h-8a8 8 0 0 0-8 8M604 733h16v16h-16zM620 749h-16v16h8a8 8 0 0 0 8-8M604 797v16h8a8 8 0 0 0 0-16"/><circle cx="628" cy="293" r="8"/><circle cx="628" cy="325" r="8"/><path d="M620 365h16v-8a8 8 0 0 0-16 0M620 365h16v16h-16zM620 381h16v16h-16zM620 397h16v16h-16zM620 413h16v16h-16zM620 525h16v16h-16zM636 541h-16v8a8 8 0 0 0 16 0M620 589v16h8a8 8 0 0 0 0-16M620 637h16v-8a8 8 0 0 0-16 0M620 637h16v16h-16zM620 653h16v16h-16zM620 669h16v16h-16zM620 685h16v16h-16zM620 701h16v16h-16zM620 717h16v16h-16zM620 733h16v16h-16zM636 413h16v16h-16zM636 429h16v16h-16zM636 445h16v16h-16zM652 477v-16h-16v8a8 8 0 0 0 8 8M636 509h16v-8a8 8 0 0 0-16 0M636 509h16v16h-16zM652 525h-16v16h8a8 8 0 0 0 8-8M636 573h16v-8a8 8 0 0 0-16 0"/><path d="M652 573h-16v8a8 8 0 0 0 16 0M652 621v-16h-8a8 8 0 0 0 0 16M636 653v16h16v-8a8 8 0 0 0-8-8M636 669h16v16h-16zM636 733h16v16h-16zM652 749h-16v8a8 8 0 0 0 16 0"/><circle cx="644" cy="789" r="8"/><path d="M652 413v16h16v-8a8 8 0 0 0-8-8M652 429h16v16h-16zM652 445h16v16h-16zM652 461h16v16h-16zM668 557v-16h-8a8 8 0 0 0 0 16M652 605h16v16h-16zM668 653v-16h-8a8 8 0 0 0 0 16M652 669h16v16h-16z"/><circle cx="660" cy="709" r="8"/><path d="M652 733h16v16h-16zM668 781v-16h-8a8 8 0 0 0 0 16M668 445v16h16v-8a8 8 0 0 0-8-8M668 461h16v16h-16zM684 477h-16v8a8 8 0 0 0 16 0M684 525v-16h-8a8 8 0 0 0 0 16M668 541v16h16v-8a8 8 0 0 0-8-8M684 573v-16h-16v8a8 8 0 0 0 8 8M668 605h16v-16h-8a8 8 0 0 0-8 8M668 605h16v16h-16zM668 621h16v16h-16zM668 637h16v16h-16zM668 653h16v16h-16zM668 669h16v16h-16zM668 733h16v16h-16zM668 765h16v16h-16zM668 781h16v16h-16zM684 797h-16v8a8 8 0 0 0 16 0M684 509h16v-16h-8a8 8 0 0 0-8 8M684 509h16v16h-16zM700 541v-16h-16v8a8 8 0 0 0 8 8M684 557h16v16h-16zM684 589v16h16v-8a8 8 0 0 0-8-8M700 605h-16v16h8a8 8 0 0 0 8-8M684 653v16h16v-8a8 8 0 0 0-8-8M684 669h16v16h-16zM684 685h16v16h-16zM684 701h16v16h-16zM684 717h16v16h-16zM700 733h-16v16h8a8 8 0 0 0 8-8M684 765v16h16v-8a8 8 0 0 0-8-8M700 781h-16v16h8a8 8 0 0 0 8-8M716 429v-16h-8a8 8 0 0 0 0 16M700 493h16v-8a8 8 0 0 0-16 0M716 493h-16v16h8a8 8 0 0 0 8-8M700 525h16v16h-16zM700 557v16h8a8 8 0 0 0 0-16"/><circle cx="708" cy="629" r="8"/><path d="M700 669v16h8a8 8 0 0 0 0-16M700 717v16h8a8 8 0 0 0 0-16M716 413v16h8a8 8 0 0 0 0-16M716 525v16h8a8 8 0 0 0 0-16M732 589v-16h-8a8 8 0 0 0 0 16"/><circle cx="724" cy="645" r="8"/><path d="M716 701h16v-16h-8a8 8 0 0 0-8 8M732 701h-16v8a8 8 0 0 0 16 0M716 765h16v-16h-8a8 8 0 0 0-8 8M732 765h-16v8a8 8 0 0 0 16 0M732 461h16v-8a8 8 0 0 0-16 0M748 477v-16h-16v8a8 8 0 0 0 8 8"/><circle cx="740" cy="501" r="8"/><path d="M732 573h16v16h-16zM748 605v-16h-16v8a8 8 0 0 0 8 8"/><circle cx="740" cy="629" r="8"/><path d="M732 669h16v-16h-8a8 8 0 0 0-8 8M732 669h16v16h-16zM732 685h16v16h-16zM732 749h16v16h-16z"/><circle cx="740" cy="805" r="8"/><path d="M748 461v16h8a8 8 0 0 0 0-16"/><circle cx="756" cy="549" r="8"/><path d="M748 573v16h16v-8a8 8 0 0 0-8-8M764 589h-16v16h8a8 8 0 0 0 8-8M748 653v16h8a8 8 0 0 0 0-16M748 685v16h16v-8a8 8 0 0 0-8-8M748 701h16v16h-16zM748 717h16v16h-16zM748 733h16v16h-16zM764 749h-16v16h8a8 8 0 0 0 8-8"/></clipPath><clipPath id="b"><path d="M236 285v112h112V285zm16 16h80v80h-80z" clip-rule="evenodd"/></clipPath><clipPath id="c"><path d="M268 333h16v-16h-8a8 8 0 0 0-8 8M268 333h16v16h-16zM284 365v-16h-16v8a8 8 0 0 0 8 8M284 317h16v16h-16zM284 333h16v16h-16zM284 349h16v16h-16zM300 317v16h16v-8a8 8 0 0 0-8-8M300 333h16v16h-16zM316 349h-16v16h8a8 8 0 0 0 8-8"/></clipPath><clipPath id="d"><path d="M764 285H652v112h112zm-16 16v80h-80v-80z" clip-rule="evenodd"/></clipPath><clipPath id="e"><path d="M684 333h16v-16h-8a8 8 0 0 0-8 8M684 333h16v16h-16zM700 365v-16h-16v8a8 8 0 0 0 8 8M700 317h16v16h-16zM700 333h16v16h-16zM700 349h16v16h-16zM716 317v16h16v-8a8 8 0 0 0-8-8M716 333h16v16h-16zM732 349h-16v16h8a8 8 0 0 0 8-8"/></clipPath><clipPath id="f"><path d="M236 813h112V701H236zm16-16v-80h80v80z" clip-rule="evenodd"/></clipPath><clipPath id="g"><path d="M268 749h16v-16h-8a8 8 0 0 0-8 8M268 749h16v16h-16zM284 781v-16h-16v8a8 8 0 0 0 8 8M284 733h16v16h-16zM284 749h16v16h-16zM284 765h16v16h-16zM300 733v16h16v-8a8 8 0 0 0-8-8M300 749h16v16h-16zM316 765h-16v16h8a8 8 0 0 0 8-8"/></clipPath></defs><path d="M147.91 719.14a9 9 0 0 1-9-9V220.96c0-16.44 12.3-29.82 27.42-29.82h432.89a9 9 0 0 1 0 18H166.33c-5.2 0-9.42 5.3-9.42 11.82v489.18a9 9 0 0 1-9 9M833.54 913.19h-432.9a9 9 0 0 1 0-18h432.89c5.2 0 9.42-5.3 9.42-11.82V394.19a9 9 0 0 1 18 0v489.18c.01 16.45-12.29 29.82-27.41 29.82M312.42 871.55H194c-10.27 0-17.61-2.02-21.22-5.84-2.26-2.38-3.23-5.74-2.99-10.25.52-9.5 1.31-18.38 2.01-26.22 1.46-16.41 2.61-29.37.73-39.52-2.47-13.3-10.29-21.07-23.23-23.09-11.61-1.81-21.07 2.66-28.12 13.31-5.3 8-8.87 18.68-13.01 31.04-3.08 9.23-6.28 18.77-10.55 28.34-1.22 2.73-4.11 4.31-9.54 7.1-6.77 3.47-16.04 8.23-23.83 19.07a72 72 0 0 0-3.88 6.05H-.07v18h52.26c-4.74 13.12-6.78 24.61-6.91 25.38a8.99 8.99 0 0 0 7.33 10.4c4.9.84 9.55-2.43 10.41-7.32.05-.26 4.73-26.51 15.86-42 5.26-7.31 11.44-10.49 17.43-13.56 6.52-3.34 13.91-7.13 17.76-15.78 4.63-10.38 8.11-20.78 11.18-29.97 8.63-25.81 12.7-33.62 21.27-32.29 5.3.83 7.25 2.84 8.32 8.6 1.43 7.72.38 19.6-.96 34.63-.71 7.98-1.51 17.03-2.05 26.83-.52 9.45 2.21 17.61 7.89 23.6 7.2 7.61 18.74 11.46 34.29 11.46h118.42c6.88 0 11.68 5.21 11.68 12.68 0 7.5-5.94 11.98-11.68 11.98h-71.84c-1.58-.26-3.19-.4-4.84-.4h-65.96c-16.53 0-29.99 13.45-29.99 29.99 0 11.04 6 20.7 14.91 25.91a29.83 29.83 0 0 0-4.69 16.07c0 10.3 5.22 19.4 13.15 24.8a29.8 29.8 0 0 0-5.43 17.18c0 4.17.86 8.15 2.41 11.77-64.08-.9-67.31-5.19-81.4-23.94-3.89-5.18-7.4-12.29-10.42-21.13-1.61-4.7-6.72-7.21-11.43-5.61-4.7 1.61-7.21 6.72-5.61 11.43 1.24 3.64 2.58 7.05 4 10.25H-.07v18h66.03c8.95 11.85 16.28 20.43 35.4 24.69 15.68 3.49 39.05 4.37 85.4 4.51.32.01.64.02.97.02h48.01c16.53 0 29.99-13.45 29.99-29.99 0-8.16-3.28-15.57-8.6-20.99 5.31-5.41 8.6-12.82 8.6-20.99s-3.28-15.57-8.6-20.99c5.31-5.41 8.6-12.82 8.6-20.99 0-4.11-.83-8.02-2.33-11.59h49.03c16.37 0 29.68-13.45 29.68-29.98-.01-17.46-12.77-30.65-29.69-30.65m-64.69 114.22c0 6.61-5.38 11.99-11.99 11.99h-55.73c-6.61 0-11.99-5.38-11.99-11.99s5.38-11.99 11.99-11.99h55.73c6.61.01 11.99 5.38 11.99 11.99m-11.98 53.96h-31.68c-5.9 0-11.46-.01-16.73-.02-6.42-.21-11.59-5.49-11.59-11.97 0-6.61 5.38-11.99 11.99-11.99h48.01c6.61 0 11.99 5.38 11.99 11.99-.01 6.62-5.39 11.99-11.99 11.99m11.98-95.93c0 6.61-5.38 11.99-11.99 11.99h-65.96c-6.61 0-11.99-5.38-11.99-11.99s5.38-11.99 11.99-11.99h63.14c.84.26 1.72.4 2.64.4h3.18c5.17 1.34 8.99 6.02 8.99 11.59M1000.07 71.49h-66.03c-8.95-11.85-16.28-20.43-35.4-24.69-17.52-3.9-44.63-4.53-102.71-4.53h-31.68c-16.53 0-29.99 13.45-29.99 29.99 0 8.16 3.28 15.57 8.59 20.99-5.31 5.41-8.59 12.82-8.59 20.99 0 8.16 3.28 15.57 8.59 20.99-5.31 5.41-8.59 12.82-8.59 20.99 0 4.11.83 8.02 2.33 11.59h-49.02c-16.37 0-29.68 13.45-29.68 29.98 0 17.49 12.76 30.68 29.68 30.68H806c10.27 0 17.61 2.02 21.22 5.84 2.26 2.38 3.23 5.73 2.99 10.24-.52 9.5-1.31 18.38-2.01 26.23-1.46 16.41-2.61 29.37-.73 39.52 2.47 13.3 10.29 21.07 23.23 23.09q2.52.39 4.89.39c9.39 0 17.19-4.6 23.22-13.71 5.3-8 8.87-18.68 13.01-31.04 3.08-9.23 6.28-18.77 10.55-28.34 1.22-2.73 4.11-4.31 9.54-7.1 6.77-3.47 16.04-8.23 23.83-19.07 1.38-1.92 2.67-3.95 3.88-6.05h60.44v-18H947.8c4.74-13.12 6.78-24.61 6.91-25.38.85-4.9-2.43-9.55-7.33-10.4a9 9 0 0 0-10.41 7.32c-.05.26-4.73 26.51-15.86 42-5.26 7.31-11.44 10.49-17.43 13.56-6.52 3.34-13.91 7.13-17.76 15.78-4.63 10.37-8.11 20.78-11.18 29.97-8.63 25.81-12.69 33.63-21.27 32.29-5.3-.83-7.25-2.84-8.32-8.6-1.43-7.72-.38-19.6.96-34.63.71-7.98 1.52-17.03 2.05-26.83.52-9.45-2.21-17.61-7.89-23.61-7.2-7.61-18.74-11.46-34.29-11.46h-118.4c-6.88 0-11.68-5.21-11.68-12.68 0-7.5 5.94-11.98 11.68-11.98h71.84c1.58.26 3.19.4 4.84.4 3.77 0 6.99-2.32 8.33-5.6.54-1.15.85-2.44.85-3.8a9 9 0 0 0-9-9h-3.18c-5.16-1.34-8.99-6.02-8.99-11.59 0-6.61 5.38-11.99 11.99-11.99a9 9 0 0 0 0-18c-6.61 0-11.99-5.38-11.99-11.99s5.38-11.99 11.99-11.99a9 9 0 0 0 0-18c-6.61 0-11.99-5.38-11.99-11.99s5.38-11.99 11.99-11.99h31.68c107.16 0 108.53 1.82 125.31 24.16 3.89 5.18 7.4 12.29 10.42 21.13 1.61 4.7 6.72 7.21 11.43 5.61 4.7-1.61 7.21-6.72 5.61-11.43-1.24-3.64-2.58-7.05-4-10.25h55.37V71.49z"/><text font-family="sans-serif" font-size="80" font-weight="600" transform="translate(367.682 1019.509)">Scan me!</text><path fill="#fff" d="M197 247h606v605H197z"/><path d="M236 285h528v528H236z" clip-path="url('#a')"/><path d="M236 285h112v112H236z" clip-path="url('#b')"/><path d="M268 317h48v48h-48z" clip-path="url('#c')"/><path d="M652 285h112v112H652z" clip-path="url('#d')"/><path d="M684 317h48v48h-48z" clip-path="url('#e')"/><path d="M236 701h112v112H236z" clip-path="url('#f')"/><path d="M268 733h48v48h-48z" clip-path="url('#g')"/></svg>